# xmcd
#
# Track frame offsets:
#	150
#	19770
#	44592
#	64140
#	82100
#
# Disc length: 1434 seconds
#
# Revision: 2
# Processed by: cddbd v1.5.2PL0 Copyright (c) Steve Scherf et al.
# Submitted via: audiograbber 1.83.01
#
DISCID=3f059805
DTITLE=Nuttin´ Nyce - Froggy Style [CDm)
DYEAR=1993
DGENRE=R&B
TTITLE0=Froggy Style (Lp Version)
TTITLE1=Froggy Style (Fingers Extended Radio Version)
TTITLE2=Froggy Style (Radio Version)
TTITLE3=Froggy Style (Fingers Street Stye)
TTITLE4=Proof Is In The Pudding
EXTD=
EXTT0=
EXTT1=
EXTT2=
EXTT3=
EXTT4=
PLAYORDER=
